<?xml version="1.0" encoding="utf-8"?>
<!-- Generator: Adobe Illustrator 21.0.0, SVG Export Plug-In . SVG Version: 6.00 Build 0)  -->
<svg version="1.1" id="Layer_1" xmlns="http://www.w3.org/2000/svg" xmlns:xlink="http://www.w3.org/1999/xlink" x="0px" y="0px"
	 viewBox="0 0 283.5 318" style="enable-background:new 0 0 283.5 318;" xml:space="preserve">
<style type="text/css">
	.st0{fill-rule:evenodd;clip-rule:evenodd;fill:#002D44;}
	.st1{fill:#002D44;}
	.st2{fill:#A0D6F4;}
	.st3{fill:#FFFFFF;}
	.st4{fill:#BE1E2D;}
</style>
<g>
	<path class="st0" d="M108.8,316.8c4.5-27.8,28.2-55.6,55.2-64c-5.8,20.7-4.8,40.4,7.2,64h-13.4c-5.5-9.8-9.4-20.6-9.7-39
		c-18.8,12.8-22.8,27.7-25.8,39H108.8z"/>
	<g>
		<path class="st1" d="M46.6,299.1c0,9.7-8.4,18.6-23.3,18.6c-11,0-21.4-4.3-24-15.3l13.5-4.2c0.8,3.4,3.9,7.1,10.4,7.1
			c5,0,8.8-2,8.8-5.9c0-4.4-5.9-5.1-12.6-6.8c-11.9-2.9-17.3-8.4-17.3-18.4c0-11.4,9.5-18.2,21.9-18.2c10.2,0,18.9,5.5,21.2,14.9
			l-13.5,3.3c-0.8-2.9-3.2-5.8-8.4-5.8c-4.3,0-7.1,2.3-7.1,5.7c0,4.7,7.1,5.8,11.7,7.1C42.3,285.2,46.6,289.8,46.6,299.1z"/>
		<path class="st1" d="M104.2,256.9v59.6H89.6v-23.2H68v23.2H53.4v-59.6H68v22.7h21.6v-22.7H104.2z"/>
		<path class="st1" d="M210.7,316.5l-10.1-19.9c-0.3,0-0.5,0-0.9,0h-8.4v19.9h-14.6v-59.6h22.9c15.2,0,22.9,8.7,22.9,20.6
			c0,7.2-3.5,12.5-9.2,15.8l12.7,23.3H210.7z M191.4,284.3h8.4c4.3,0,8.2-1.7,8.2-6.8c0-4.4-3.3-6.8-8.2-6.8h-8.4V284.3z"/>
		<path class="st1" d="M265.6,316.5l-18.9-27.3v27.3h-14.6v-59.6h14.6v26.5l18.2-26.5h16.3l-20.6,28.9l22.1,30.8H265.6z"/>
	</g>
</g>
<path class="st1" d="M111.6,85.7c-1.1-5.5-1.3-10.9,0.8-16.1c1.8-4.6,5.1-7.6,9.7-9.3c0.3-0.1,0.9,0,1,0.2c2.7,3.8,4.1,7.9,2.4,12.5
	c-1.4,3.8-4.2,6.1-8.2,6.7c-2.7,0.4-4.4,1.9-5.2,4.5C111.9,84.7,111.8,85.2,111.6,85.7 M120.7,65.2c-0.4,0.1-0.7,0.2-1,0.3
	c-3.9,1.5-5.7,7.1-4.9,10.3c0.1,0.2,0.5,0.5,0.8,0.5c1.8-0.1,3.4-0.6,4.9-1.6c0.6-0.5,1.1-1.2,1.8-2c-1.9-0.1-3-0.9-3.2-2.4
	c-0.3-1.8,0.8-2.8,2.4-3.4C121.3,66.3,121,65.8,120.7,65.2z"/>
<path class="st1" d="M251.7,190.2c-0.6-0.7-1.2-1.6-1.4-2.4c-3-12.1-10.3-22.3-17.2-26.4c0.3,3.1,1,11.9-3.7,11.2
	c-0.7-3.4-1.7-6.6-4.7-8.8c-0.6,2.7-1.2,5.2-3.4,7.1c-1.5-3.5-1.9-9.6-2.2-13.5c-0.4-4.7-0.9-9.4-1-14.1c-0.1-5.4,0.2-10.7,0.4-16.1
	c0.1-1.9,0.4-3.6,1.7-5.2c2.6-3.2,3.6-6.9,3.7-11c0-3.5,0.5-7,1.1-10.5c0.8-4.9,1.3-9.7,0.3-14.6c-2.6-12.3-9.4-21.6-20.2-27.9
	c-0.4-0.2-0.7-0.5-1-0.9c-5-7.2-9.9-14.4-15.1-21.5c-6.9-9.5-14.1-18.8-22.1-27.4c-2.2-2.3-4.6-4.5-7.2-6.4c-2.3-1.8-5-2.5-7.9-1.9
	c-2.6,0.5-4.8,1.9-6.7,3.7c-5,4.6-9.1,10-13.1,15.4c-6,8.3-10.9,17.3-15.4,26.4c-0.6,1.2-1.3,2.2-2.5,2.9c-1.3,0.8-2.4,1.7-3.6,2.6
	c-4.9,3.7-9.1,8-11.4,13.9c-1.8,4.5-2.6,9.2-3.3,14c-0.3,2-0.6,4-1.6,5.9c-1.5,3-2.9,6.1-4.4,9.1c-6.4,13.1-12,26.5-15.8,40.6
	c-0.1,0.4-0.6,0.9-1,1.1c-3.5,2.1-7.1,4.1-10.6,6.2c-8.9,5.5-16.8,12.2-23.5,20.2c-4.9,5.8-9.2,12-13.4,18.3
	c-0.1,0.1-0.1,0.3-0.2,0.4c3,1.1,5.9,2.1,8.8,3.3c13.4,5.6,23.5,14.8,29.5,28.2c2.5,5.6,3.6,11.5,2.5,17.7c-0.9,5-2.3,10-4.2,14.7
	c-0.1,0.3-0.3,0.7-0.4,1.1h12.8c0.6-3,1.2-5.9,1.7-8.8c1.1-5.9,1.1-11.8-0.9-17.6c-3.6-10.5-8.6-20.2-16.4-28.3
	c-1.7-1.7-2.9-3.8-3.1-6.2c-0.3-2.5-0.3-5.1-0.4-7.7c0-1.3,0-2.7,0-4c-0.4,0.6-0.6,1.3-0.8,2c-0.8,2-1.4,4.1-2.4,6
	c-0.8,1.6-2.2,1.9-3.9,1.3c-0.6-0.2-1.1-0.5-1.6-0.8c-2.7-1.4-5.5-2.8-8.2-4.2c-0.2-0.1-0.5-0.3-0.6-0.3
	c9.5-14.6,22.7-25.1,37.9-33.4c-1,12.5-0.4,24.9,0.1,37.5c0.5-10.7,7.3-50.7,14.5-67.6c3.7-8.9,7.8-17.6,11.8-26.4
	c0.5-1,0.9-2.1,1.1-3.2c0.7-3.6,1.2-7.3,1.9-10.9c1-5.4,3.5-10,7.8-13.4c2.5-2,5.1-3.9,7.7-5.8c0.9-0.6,1.5-1.3,2-2.3
	C128.2,40,134,28.9,142,19.2c2.8-3.4,5.6-6.7,8.7-9.9c2.3-2.3,3.6-2.3,6-0.1c3,2.9,5.9,5.9,8.6,9.1c10.2,12,19.5,24.8,28.9,37.5
	c0.2,0.3,0.4,0.5,0.6,1c-5.3-1-10.2-0.8-15,1.2c10.2-0.3,19.5,2.5,26.7,9.8c6.9,7,12,15.3,11.2,25.9c-0.2-0.2-0.4-0.5-0.6-0.8
	c-2-3.3-3.8-6.7-6-9.8c-3.6-5.1-8.1-9.2-14-11.5c-5.1-2-10.5-2.3-15.9-1.8c-5.9,0.6-11.4,2.3-16.5,5.1
	c-10.3,5.6-17.6,13.9-22.6,24.4c-7.5,15.9-10.7,32.7-11,50.2c-0.1,6.3,0.4,12.5,1.4,18.7c1.1,7.2,3,14.1,5.8,20.8
	c4.4,10.3,10.7,19.1,19.9,25.6c3.2,2.3,6.7,4.2,10.4,5.6c-4.8-3.8-9.2-8.1-13-12.9c-3.8-4.8-7-10.1-9.6-15.7
	c1.1,1.3,5.4,3.9,7.1,4.9c13.7,8.4,28.8,12.3,44.7,13.5c6.2,0.5,12.3,0.3,18.4-0.6c6.9-0.9,13.5-2.7,19.7-6c4.4-2.3,8-4.5,10.1-9.3
	c2,3,3.3,4.5,3.4,8.4c0.1,4.5-1.4,8.5-3.9,12.1c-5.5,8.1-13.3,13.2-22.4,16.4c-8.3,2.9-17,3.7-25.8,3.6c-5.6,0-11.1-0.5-16.7-1
	c-3.9-0.3-7.9-0.8-11.8-1.3c-4.2-0.5-8.4-1.2-12.6-1.8c-4-0.6-8-1.2-12.1-1.7c-3.9-0.5-7.9-1-11.8-1.4c0,0.1,0,0.1,0,0.2
	c0.3,0.1,0.5,0.2,0.8,0.2c2.6,0.6,5.2,1.1,7.8,1.8c10.6,2.7,21.1,5.5,31.7,8.2c7.1,1.8,14.2,3,21.5,3.6c5.2,0.4,10.5,0.4,15.7-0.1
	c5.6-0.6,11.1-1.8,16.4-3.8c9.8-3.7,18.3-9.2,24.5-17.8c3.3-4.5,5.5-9.5,5.8-15.1C256.8,199.4,255.1,194.5,251.7,190.2z"/>
<path class="st2" d="M249.3,203c-0.2,1.1-1,2-2.1,2.8c-5.7,4-12,6.4-18.6,8.1c-10.2,2.5-20.6,3.2-31.1,2.3
	c-10.8-0.9-21.2-3.3-31.1-7.9c-3.2,0-16.4-9.1-19.9-15.4c-0.2-0.4-0.4-0.8-0.6-1.2c1.1,1.3,5.4,3.9,7.1,4.9
	c13.7,8.4,28.8,12.3,44.7,13.5c6.2,0.5,12.3,0.3,18.4-0.6c6.9-0.9,13.5-2.7,19.7-6c4.4-2.3,8-4.5,10.1-9.3c2,3,3.3,4.5,3.4,8.4
	C249.3,202.8,249.3,202.9,249.3,203"/>
<path class="st2" d="M162.3,15c-1,0-1.9,0-2.8,0c-3.5-0.1-6.4,1.4-8.9,3.7c-3.2,3-5.6,6.6-7.8,10.3c-4.7,8.3-8.1,17.1-10.3,26.5
	c-0.6,2.6,0.1,4.9,0.4,7.3c1.3,9.4-1.3,17.5-8.3,23.9c-2.5,2.3-5.2,4.6-8,6.6c-5.5,4-9.1,9.3-11.6,15.5c-2.5,6.3-4.1,12.8-4.8,19.5
	c-0.5,4.8-0.9,9.7-1,14.6c-0.3,10.2,1.5,20.2,4,30.1c1.7,6.8,3.5,13.6,5,20.5c1.4,7,2,14,1.4,21.2c-0.4,4.2-1.3,8.2-3.3,11.9
	c-2.7,4.8-6.9,7.6-11.8,9.5c-2.1,0.8-4.1,1.6-6.2,2.3c-3.9,1.5-7.7,3.1-10.4,6.9c0.4-2.3,0.7-4.3,1-6.3c1-6.3,0-12.4-2.7-18.2
	c-0.2-0.4-0.4-0.9-0.6-1.3c-0.1-0.2-0.1-0.3-0.2-0.5c-3.6-10.5-8.6-20.2-16.4-28.3c-1.7-1.7-2.9-3.8-3.1-6.2
	c-0.3-2.5-0.3-5.1-0.4-7.7c0-1.3,0-2.7,0-4c-0.4,0.6-0.6,1.3-0.8,2c-0.8,2-1.4,4.1-2.4,6c-0.8,1.6-2.2,1.9-3.9,1.3
	c-0.6-0.2-1.1-0.5-1.6-0.8c-2.7-1.4-5.5-2.8-8.2-4.2c-0.2-0.1-0.5-0.3-0.6-0.3c0.3-0.5,0.6-0.9,0.9-1.4c9.9-9.6,20.8-17.9,32.8-24.8
	c1.9,9.6,3.3,14.5,3.9,21.9c0.1,2.8,0.2,5.6,0.4,8.4c2.1-13.9,4.4-19.1,7.7-32.9c4.8-20.2,11-40,17.9-59.6c0.2-0.5,0.5-1,0.7-1.5
	c0.5-1,0.9-2.1,1.1-3.2c0.7-3.5,1.2-7,1.8-10.5c0.3-1.2,0.6-2.4,0.9-3.7c1.3-4,3.6-7.4,7-10.1c2.5-2,5.1-3.9,7.7-5.8
	c0.9-0.6,1.5-1.3,2-2.3C128.2,40,134,28.9,142,19.2c2.8-3.4,5.6-6.7,8.7-9.9c2.3-2.3,3.6-2.3,6-0.1C158.5,11.1,160.4,13,162.3,15
	 M111.6,85.6c0.1-0.4,0.2-0.8,0.3-1.3c0.8-2.6,2.2-4.5,5.1-4.9c3.5-0.5,6.1-1.1,7.8-4c2.9-4.9,1.3-10.9-1.9-15
	c-0.1-0.2-0.7-0.2-1-0.1c-4.6,1.7-8.4,4-10.2,8.5C109.6,74.2,110.4,79.9,111.6,85.6z"/>
<path class="st3" d="M153.4,190.8c-0.4-4.4-2.1-8.7-4.2-10.4c-0.1,2-0.3,3.9-0.4,5.8c0,0.3,0,0.8,0.2,1
	C150.3,188.4,151.8,189.5,153.4,190.8 M159.1,194.2c2.3,1.1,4.7,2.2,7,3.3v-10.3C163.7,189.6,161.4,191.9,159.1,194.2z M177.1,201.3
	c1-4.4,1.7-8.7-1.2-12.6c-0.2,4.3-2.8,7.3-5.7,10.4C172.5,199.9,174.7,200.6,177.1,201.3z M239.3,178.9c-0.1,6.3-0.7,13.5-2.3,17.7
	c0,0,0.1,0,0.2-0.1c4.1-2.6,5.7-6.4,4.7-11.1C241.5,183.1,240.5,180.9,239.3,178.9z M180.7,202.3c2.8,0.6,5.3,1.1,7.7,1.5
	c1.3-5.2,0-9.8-2.7-14.5C185.2,194.2,183.6,198.4,180.7,202.3z M200.1,189.2c-2.7,7.9-3,8.4-7.7,15.3c3.7,0.8,7,0.8,10.1,0.7
	C203.8,199.3,202.9,194.1,200.1,189.2z M218.2,204.1c0.7-6.1-0.5-11.5-2.7-16.9c-3.1,8.6-4,10.6-9.3,18.1
	C210.1,205.1,214.3,204.5,218.2,204.1z M228.5,181.2c0.1,7.9-2.2,14.9-5.9,21.8c4-1,7.5-2.3,10.8-4.1c0.2-0.1,0.5-0.5,0.5-0.8
	C234.6,193.2,232.7,186.5,228.5,181.2z"/>
<path class="st3" d="M137.3,152.6l7.1,2.9l-6.8-10C137.4,147.9,137.3,150.3,137.3,152.6 M138.7,135.5l7.9,3.6l-6.4-12.2
	C139.6,129.8,139.1,132.6,138.7,135.5z M151.5,128.2l-7.6-14.7c-1,2.9-1.9,5.8-2.6,8.8L151.5,128.2z M145.4,109.4l10.4,7.4l0.9,0.5
	l-7.2-16.2C147.9,103.7,146.6,106.5,145.4,109.4z M150.9,98.7l11.7,8.4c0.1-0.1,0.1-0.1,0.2-0.2l-5.6-16.4c-0.6,0.6-1.2,1.3-1.8,1.9
	C153.8,94.5,152.3,96.6,150.9,98.7z M159.7,88.2l13.4,9.8l-4.5-16.3C165.6,83.4,162.6,85.6,159.7,88.2z M172.4,79.9l14,13
	c-0.6-5.2-1.3-10.3-2-15.3c0,0,0-0.1,0-0.1C180.4,77.4,176.3,78.2,172.4,79.9z M200.8,91.5l-3.8-11c-3.5-1.8-7.2-2.8-11-3
	L200.8,91.5z M200.3,82.5l6.7,16.6l2.9-4.7C207.7,89.8,204.4,85.6,200.3,82.5z M212.3,99.3l1.8,17.5c0.3-0.3,0.4-0.4,0.4-0.5
	C218.2,110.8,214.8,104.4,212.3,99.3z"/>
<path class="st3" d="M210.8,118.3c-3,14.8-8.1,31.2,0.9,46.9c-1.7-15.8-1.8-27.8-0.5-43.8C211.2,119.9,211.2,119.6,210.8,118.3"/>
<path id="lidah_1_" class="st4" d="M192,174.1c-0.5-2.2-2-3.2-3.7-4.1c14.8-1.8,33.7,2.7,33.9,20.6c0,0.1-4.8-9.7-8.4-10.7
	c-1.2,5.2-3.5,9.7-6.3,14.1c-2.3-5.1-5.2-9.7-8.9-13.8c-1.8,3.8-3.5,7.5-5.3,11.5c-1.9-4.2-4.2-7.8-7.7-10.6
	c-0.8,2.8-2.2,5.2-4.2,7.6c-1.2-3.4-2.9-6.3-5.4-8.7c-1.5,2.6-3.1,5.2-4.8,8.1c-1.1-2.8-2.1-5.2-3.1-7.7c-2,1.1-5.4,2.6-7.1,3.9
	c0,0,8.3-10.1,15.9-12.4C182.8,170.3,186.8,171.3,192,174.1"/>
</svg>
